<?xml version="1.0" encoding="iso-8859-1"?>
<!-- Generator: Adobe Illustrator 19.0.0, SVG Export Plug-In . SVG Version: 6.00 Build 0)  -->
<svg version="1.1" id="Capa_1" xmlns="http://www.w3.org/2000/svg" xmlns:xlink="http://www.w3.org/1999/xlink" x="0px" y="0px"
	 viewBox="0 0 491.52 491.52" style="enable-background:new 0 0 491.52 491.52;" xml:space="preserve">
<circle style="fill:#45B39C;" cx="245.76" cy="245.76" r="245.76"/>
<path style="fill:#3A556A;" d="M379.718,104.96H111.804c-3.78,0-6.844,3.064-6.844,6.843v40.031h281.6v-40.031
	C386.56,108.024,383.496,104.96,379.718,104.96z"/>
<circle style="fill:#FCD462;" cx="314.266" cy="128.41" r="7.731"/>
<circle style="fill:#44C4A1;" cx="341.837" cy="128.41" r="7.731"/>
<circle style="fill:#E56353;" cx="369.408" cy="128.41" r="7.731"/>
<path style="fill:#EBF0F3;" d="M166.487,146.714h47.71l-2.808-8.304c-0.462-1.365-1.742-2.284-3.184-2.284h-45.422
	c0.099,0.226,0.259,0.411,0.339,0.648L166.487,146.714z"/>
<path style="fill:#64798A;" d="M386.56,151.834H165.224c-1.441,0-2.721-0.919-3.184-2.284l-3.766-11.14
	c-0.461-1.365-1.742-2.284-3.184-2.284h-34.81c-1.441,0-2.723,0.919-3.184,2.284l-3.766,11.14c-0.463,1.365-1.743,2.284-3.184,2.284
	h-5.186v23.453h281.6V151.834z"/>
<path style="fill:#EBF0F3;" d="M104.96,379.717c0,3.779,3.064,6.843,6.842,6.843h267.915c3.779,0,6.842-3.064,6.842-6.843v-204.43
	h-281.6V379.717z"/>
<g>
	<path style="fill:#FFFFFF;" d="M104.96,369.477c0,3.779,3.064,6.843,6.842,6.843h267.915c3.779,0,6.842-3.064,6.842-6.843v-194.19
		h-281.6V369.477z"/>
	<path style="fill:#FFFFFF;" d="M156.125,166.633h-30.7c-1.695,0-3.07-1.375-3.07-3.073c0-1.698,1.375-3.073,3.07-3.073h30.7
		c1.695,0,3.07,1.375,3.07,3.073C159.195,165.258,157.82,166.633,156.125,166.633z"/>
	<path style="fill:#FFFFFF;" d="M208.62,166.633h-30.7c-1.695,0-3.07-1.375-3.07-3.073c0-1.698,1.375-3.073,3.07-3.073h30.7
		c1.695,0,3.07,1.375,3.07,3.073C211.69,165.258,210.315,166.633,208.62,166.633z"/>
	<path style="fill:#FFFFFF;" d="M261.11,166.633h-30.695c-1.695,0-3.07-1.375-3.07-3.073c0-1.698,1.375-3.073,3.07-3.073h30.695
		c1.695,0,3.07,1.375,3.07,3.073C264.18,165.258,262.805,166.633,261.11,166.633z"/>
	<path style="fill:#FFFFFF;" d="M313.605,166.633h-30.7c-1.695,0-3.07-1.375-3.07-3.073c0-1.698,1.375-3.073,3.07-3.073h30.7
		c1.695,0,3.07,1.375,3.07,3.073C316.675,165.258,315.3,166.633,313.605,166.633z"/>
	<path style="fill:#FFFFFF;" d="M366.095,166.633H335.4c-1.695,0-3.07-1.375-3.07-3.073c0-1.698,1.375-3.073,3.07-3.073h30.695
		c1.695,0,3.07,1.375,3.07,3.073C369.165,165.258,367.79,166.633,366.095,166.633z"/>
</g>
<path style="fill:#EBF0F3;" d="M176.883,186.181h-55.239c-3.424,0-6.2,2.776-6.2,6.2v166.843c0,3.424,2.776,6.2,6.2,6.2h55.239
	c3.424,0,6.2-2.776,6.2-6.2V192.381C183.083,188.957,180.307,186.181,176.883,186.181z"/>
<circle style="fill:#E56353;" cx="148.229" cy="218.184" r="20.337"/>
<g>
	<rect x="124.713" y="258.509" style="fill:#D5D6DB;" width="49.101" height="5.12"/>
	<rect x="124.713" y="276.531" style="fill:#D5D6DB;" width="49.101" height="5.12"/>
	<rect x="124.713" y="294.554" style="fill:#D5D6DB;" width="49.101" height="5.12"/>
	<rect x="124.713" y="312.576" style="fill:#D5D6DB;" width="49.101" height="5.12"/>
	<rect x="124.713" y="330.598" style="fill:#D5D6DB;" width="49.101" height="5.12"/>
	<rect x="124.713" y="348.621" style="fill:#D5D6DB;" width="49.101" height="5.12"/>
</g>
<rect x="207.258" y="191.181" style="fill:#FCD462;" width="45.184" height="45.184"/>
<rect x="207.258" y="249.364" style="fill:#27A2DB;" width="45.184" height="45.184"/>
<circle style="fill:#64798A;" cx="340.019" cy="340.48" r="27.668"/>
<g>
	<circle style="fill:#EBF0F3;" cx="340.019" cy="326.318" r="10.342"/>
	<path style="fill:#EBF0F3;" d="M340.045,363.432c8.163,0,15.318-4.327,19.346-10.794c-3.242-7.474-10.681-12.706-19.346-12.706
		c-8.666,0-16.105,5.232-19.346,12.706C324.726,359.105,331.881,363.432,340.045,363.432z"/>
</g>
<circle style="fill:#FCD462;" cx="234.926" cy="340.48" r="27.668"/>
<g>
	<circle style="fill:#DC8744;" cx="234.926" cy="326.318" r="10.342"/>
	<path style="fill:#DC8744;" d="M234.928,363.432c8.163,0,15.319-4.327,19.346-10.794c-3.243-7.474-10.681-12.706-19.346-12.706
		c-8.666,0-16.104,5.232-19.346,12.706C219.61,359.105,226.764,363.432,234.928,363.432z"/>
</g>
<g>
	<rect x="267.93" y="195.226" style="fill:#D5D6DB;" width="102.707" height="5.12"/>
	<rect x="267.93" y="211.2" style="fill:#D5D6DB;" width="102.707" height="5.12"/>
	<rect x="267.93" y="227.226" style="fill:#D5D6DB;" width="72.141" height="5.12"/>
	<rect x="267.93" y="253.389" style="fill:#D5D6DB;" width="102.707" height="5.12"/>
	<rect x="267.93" y="269.399" style="fill:#D5D6DB;" width="102.707" height="5.12"/>
	<rect x="267.93" y="285.384" style="fill:#D5D6DB;" width="72.141" height="5.12"/>
</g>
<g>
</g>
<g>
</g>
<g>
</g>
<g>
</g>
<g>
</g>
<g>
</g>
<g>
</g>
<g>
</g>
<g>
</g>
<g>
</g>
<g>
</g>
<g>
</g>
<g>
</g>
<g>
</g>
<g>
</g>
</svg>
